<svg xmlns="http://www.w3.org/2000/svg" xmlns:xlink="http://www.w3.org/1999/xlink" fill="none" version="1.1" width="240" height="240" viewBox="0 0 240 240"><path d="M179.96769999999998,110.706299C147.75463100000002,85.838158,111.428112,52.89138,71.612545,17.5639441C68.490366,14.7774011,65.6882119,15.87796848,64.2910366,19.569943C55.3225822,43.275076,64.0100403,64.31074100000001,78.059839,76.448212C92.109634,88.585678,113.184338,99.864548,126.008682,105.788872C126.508224,106.023033,126.071129,106.756752,125.563774,106.56942C101.952301,96.164757,85.537455,88.616898,63.2607188,71.44492C60.8878629,69.595028,58.44475815,70.28971899999999,58.15595762,73.927055C56.3294837,96.562843,70.824193,114.367058,87.036098,120.38507C97.050488,124.10826,108.001518,126.16109,118.164207,127.40997C118.687172,127.48021,118.57009500000001,128.26075,118.03931800000001,128.26075C104.94179199999999,128.30759,89.159178,125.13858,75.445017,119.90893C72.557002,118.80057,71.542295,121.10316,72.002816,122.92963C74.344448,132.49911,86.177502,147.12651,105.019844,150.24867C108.536232,150.76062,112.092693,150.94354,115.643055,150.79507C116.423592,150.79507,116.634338,151.21654,116.376766,151.82539Q103.57584,173.7587,103.013844,174.69533C102.57674,175.42123,102.84212500000001,176.00665,103.75536,176.00665L120.646343,176.00665C121.42688,176.00665,121.90301500000001,176.51399,121.504936,177.17746C121.106853,177.84093,98.915989,214.51871,97.870049,216.25151C96.95681400000001,217.81261,98.033962,218.9444,99.75116700000001,217.68771C101.468369,216.43103,172.27155,164.61069,174.29314,163.11206C175.22202,162.43298,174.99563999999998,161.55096,173.69996,161.55096L158.54176999999999,161.55096C157.55829599999998,161.55096,157.339737,160.8875,158.011,160.21623C158.68227000000002,159.54497,175.18298,143.08329,181.06828000000002,136.91696000000002C187.18774,130.47751,190.30992,118.68346,179.96769999999998,110.706299Z" fill="#FFFFFF" fill-opacity="1"/></svg>
